# xmcd
#
# Track frame offsets:
#	150
#	15985
#	34380
#	52987
#	71738
#	86147
#	104776
#	122895
#	141284
#	156467
#	174713
#	191783
#	203477
#	221791
#	238140
#
# Disc length: 3468 seconds
#
# Revision: 1
# Processed by: cddbd v1.5.1PL0 Copyright (c) Steve Scherf et al.
# Submitted via: audiograbber 1.82.02
#
DISCID=e90d8a0f
DTITLE=Various Artist - Country Hits Monthly 9907C
DYEAR=1900
DGENRE=Karaoke
TTITLE0=Alabama - God must have spent a little more time on you
TTITLE1=Sherrie Austin - Never been kissed
TTITLE2=Tim McGraw - The trouble with never
TTITLE3=Matt King - From your knees
TTITLE4=Lee Ann Womack - Some things I know
TTITLE5=Chad Brock - Lightening does the work
TTITLE6=Chris Ledoux - Life is a highway
TTITLE7=Julie Reeves - He keeps me in one piece
TTITLE8=Marty Stuart - Red, red wine and cheatin' songs
TTITLE9=Tim McGraw - Somebody must be praying for me
TTITLE10=Susan Ashton - You're lucky I love you
TTITLE11=Dwight Yoakam - Crazy little thing called love
TTITLE12=Vince Gill and Patti Loveless - My kind of woman - my kind of man
TTITLE13=Tim McGraw - Seventeen
TTITLE14=Lionel Cartwright - Miles and years
EXTD=
EXTT0=
EXTT1=
EXTT2=
EXTT3=
EXTT4=
EXTT5=
EXTT6=
EXTT7=
EXTT8=
EXTT9=
EXTT10=
EXTT11=
EXTT12=
EXTT13=
EXTT14=
PLAYORDER=
